<svg xmlns="http://www.w3.org/2000/svg" version="1.1" xmlns:xlink="http://www.w3.org/1999/xlink" xmlns:svgjs="http://svgjs.dev/svgjs" width="1500" height="162" viewBox="0 0 1500 162"><g transform="matrix(1,0,0,1,-0.9090909090909918,-0.01971686010320184)"><svg viewBox="0 0 396 43" data-background-color="#1a365d" preserveAspectRatio="xMidYMid meet" height="162" width="1500" xmlns="http://www.w3.org/2000/svg" xmlns:xlink="http://www.w3.org/1999/xlink"><g id="tight-bounds" transform="matrix(1,0,0,1,0.2400000000000091,0.005233487558257366)"><svg viewBox="0 0 395.52 42.989533024883464" height="42.989533024883464" width="395.52"><g><svg viewBox="0 0 541.8581655799028 58.8952" height="42.989533024883464" width="395.52"><g><svg viewBox="0 0 541.8581655799028 58.8952" height="58.8952" width="541.8581655799028"><g id="textblocktransform"><svg viewBox="0 0 541.8581655799028 58.8952" height="58.8952" width="541.8581655799028" id="textblock"><g><svg viewBox="0 0 541.8581655799028 58.8952" height="58.8952" width="541.8581655799028"><g><svg><g></g><g></g></svg></g><g><svg><g><svg></svg></g><g></g></svg></g><g id="text-0"><svg viewBox="0 0 541.8581655799028 58.8952" height="58.8952" width="541.8581655799028"><g transform="matrix(1,0,0,1,0,11.247599999999998)"><svg width="164.65000000000003" viewBox="3.45 -35.7 164.64000000000001 36.400000000000006" height="36.400000000000006" data-palette-color="#cdedfe"><path d="M3.45-1.1L3.45-1.1 3.75-4.1 4.05-4.1Q6-2.4 8.45-1.45 10.9-0.5 13.3-0.5L13.3-0.5Q16.7-0.5 18.8-2.38 20.9-4.25 20.9-7.4L20.9-7.4Q20.9-9.15 20.13-10.65 19.35-12.15 17.57-13.7 15.8-15.25 12.7-17.05L12.7-17.05Q10.55-18.3 8.6-19.68 6.65-21.05 5.4-22.88 4.15-24.7 4.15-27.25L4.15-27.25Q4.15-31.05 6.9-33.38 9.65-35.7 14.15-35.7L14.15-35.7Q16.15-35.7 18.45-35.27 20.75-34.85 22-34.2L22-34.2 21.75-31.4 21.45-31.4Q18.6-34.5 14.15-34.5L14.15-34.5Q10.95-34.5 9-32.88 7.05-31.25 7.05-28.5L7.05-28.5Q7.05-26.45 8.13-24.98 9.2-23.5 10.9-22.33 12.6-21.15 14.55-20.05L14.55-20.05Q16.8-18.75 18.93-17.3 21.05-15.85 22.43-13.83 23.8-11.8 23.8-8.75L23.8-8.75Q23.8-5.95 22.5-3.83 21.2-1.7 18.82-0.5 16.45 0.7 13.3 0.7L13.3 0.7Q11.3 0.7 8.6 0.2 5.9-0.3 3.45-1.1ZM37.05 0L33.65 0 33.65-35 37.05-35 37.05 0ZM79.4-35L83-35 83 0 79.59 0 79.59-32.1 79.3-32.1 67.2-8.9 65.65-8.9 51.9-29.35 51.59-29.35 52.7 0 49.3 0 50.55-35.7 51.55-35.7 67.3-12.3 67.59-12.3 79.4-35ZM99.39 0L95.99 0 95.99-35 102.24-35Q108.29-35 111.64-32.43 114.99-29.85 114.99-25.25L114.99-25.25Q114.99-20.65 111.64-18.07 108.29-15.5 102.24-15.5L102.24-15.5 99.39-15.5 99.39 0ZM102.24-33.8L102.24-33.8 99.39-33.8 99.39-16.7 102.24-16.7Q111.39-16.7 111.39-25.25L111.39-25.25Q111.39-33.8 102.24-33.8ZM124.49 0L124.49-35 127.89-35 127.89-1Q128.84-1 130.89-1.3L130.89-1.3 139.19-2.55 139.19 0 124.49 0ZM156.14 0L152.54 0 152.54-14.8 140.14-35 143.94-35 155.09-16.7 155.39-16.7 164.29-35 168.09-35 156.14-15.5 156.14 0Z" opacity="1" transform="matrix(1,0,0,1,0,0)" fill="#cdedfe" class="undefined-tk-0"></path></svg></g><g><svg xmlns="http://www.w3.org/2000/svg" data-name="Layer 2" viewBox="1.997805369852173 2.967061201268178 19.138194630147826 19.04012013365639" x="178.55480000000003" y="0" height="58.8952" width="59.19856557990263" class="icon-dxe-0" data-fill-palette-color="accent" id="dxe-0"><path d="M21.136 17.99L20.864 16.01 19.467 16.204 17.88 8.245A1 1 0 0 0 16.724 7.456L14.038 7.94 13.475 4.812A0.995 0.995 0 0 0 12.313 4.006L7.62 4.85C7.504 4.425 7.451 2.639 6.144 3.02L2.714 4.041A1 1 0 0 0 3.284 5.96L5.66 5.252 7.83 16.24A3 3 0 0 0 9.55 21.954L9.56 21.952A3.01 3.01 0 0 0 11.967 19.262ZM17.48 16.474L11.474 17.302A3 3 0 0 0 9.854 16.12L8.82 10.914 16.112 9.598ZM11.684 6.151L12.069 8.293 8.431 8.951 8.009 6.813ZM9.184 19.987A1.005 1.005 0 0 1 8.787 18.017 1.005 1.005 0 1 1 9.185 19.987" fill="#ffdc00" data-fill-palette-color="accent"></path></svg></g><g transform="matrix(1,0,0,1,251.65816557990266,11.247599999999998)"><svg width="290.20000000000005" viewBox="1.6 -35.7 290.17999999999995 36.400000000000006" height="36.400000000000006" data-palette-color="#cdedfe"><path d="M16 0.7L1.6-35 5.25-35 17.5-4.4 17.8-4.4 25.8-24.2 21.45-35 25.1-35 37.3-4.5 37.6-4.5 47.7-35 51.35-35 36.95 0.7 35.85 0.7 26.5-22.55 17.1 0.7 16 0.7ZM62.55 0L59.15 0 59.15-35 62.55-35 62.55-18.8 83.55-18.8 83.55-35 86.95-35 86.95 0 83.55 0 83.55-17.6 62.55-17.6 62.55 0ZM97.45-17.5L97.45-17.5Q97.45-21.35 98.82-24.68 100.2-28 102.67-30.48 105.15-32.95 108.47-34.33 111.8-35.7 115.65-35.7L115.65-35.7Q119.5-35.7 122.82-34.33 126.15-32.95 128.62-30.48 131.1-28 132.47-24.68 133.85-21.35 133.85-17.5L133.85-17.5Q133.85-13.65 132.47-10.33 131.1-7 128.62-4.53 126.15-2.05 122.82-0.68 119.5 0.7 115.65 0.7L115.65 0.7Q111.8 0.7 108.47-0.68 105.15-2.05 102.67-4.53 100.2-7 98.82-10.33 97.45-13.65 97.45-17.5ZM101.25-17.5L101.25-17.5Q101.25-12.4 103.05-8.58 104.85-4.75 108.1-2.63 111.35-0.5 115.65-0.5L115.65-0.5Q119.95-0.5 123.2-2.63 126.45-4.75 128.25-8.6 130.05-12.45 130.05-17.5L130.05-17.5Q130.05-22.55 128.25-26.38 126.45-30.2 123.2-32.35 119.95-34.5 115.65-34.5L115.65-34.5Q111.35-34.5 108.12-32.38 104.9-30.25 103.07-26.43 101.25-22.6 101.25-17.5ZM144.34 0L144.34-35 147.74-35 147.74-1Q148.69-1 150.74-1.3L150.74-1.3 159.04-2.55 159.04 0 144.34 0ZM182.79 0L167.39 0 167.39-35 182.64-35 182.64-32.55 173.89-33.7Q171.59-34 170.79-34L170.79-34 170.79-18.75Q171.44-18.75 173.89-18.9L173.89-18.9 182.09-19.4 182.09-17.1 173.89-17.6Q171.44-17.75 170.79-17.75L170.79-17.75 170.79-1Q171.69-1 173.94-1.3L173.94-1.3 182.79-2.45 182.79 0ZM190.24-1.1L190.24-1.1 190.54-4.1 190.84-4.1Q192.79-2.4 195.24-1.45 197.69-0.5 200.09-0.5L200.09-0.5Q203.49-0.5 205.59-2.38 207.69-4.25 207.69-7.4L207.69-7.4Q207.69-9.15 206.91-10.65 206.14-12.15 204.36-13.7 202.59-15.25 199.49-17.05L199.49-17.05Q197.34-18.3 195.39-19.68 193.44-21.05 192.19-22.88 190.94-24.7 190.94-27.25L190.94-27.25Q190.94-31.05 193.69-33.38 196.44-35.7 200.94-35.7L200.94-35.7Q202.94-35.7 205.24-35.27 207.54-34.85 208.79-34.2L208.79-34.2 208.54-31.4 208.24-31.4Q205.39-34.5 200.94-34.5L200.94-34.5Q197.74-34.5 195.79-32.88 193.84-31.25 193.84-28.5L193.84-28.5Q193.84-26.45 194.91-24.98 195.99-23.5 197.69-22.33 199.39-21.15 201.34-20.05L201.34-20.05Q203.59-18.75 205.71-17.3 207.84-15.85 209.21-13.83 210.59-11.8 210.59-8.75L210.59-8.75Q210.59-5.95 209.29-3.83 207.99-1.7 205.61-0.5 203.24 0.7 200.09 0.7L200.09 0.7Q198.09 0.7 195.39 0.2 192.69-0.3 190.24-1.1ZM218.89 0L215.24 0 228.69-35 231.79-35 245.24 0 241.59 0 235.39-16.4 224.04-16.4 218.89 0ZM229.34-32.4L229.04-32.4 224.39-17.6 234.94-17.6 229.34-32.4ZM253.33 0L253.33-35 256.73-35 256.73-1Q257.68-1 259.73-1.3L259.73-1.3 268.03-2.55 268.03 0 253.33 0ZM291.78 0L276.38 0 276.38-35 291.63-35 291.63-32.55 282.88-33.7Q280.58-34 279.78-34L279.78-34 279.78-18.75Q280.43-18.75 282.88-18.9L282.88-18.9 291.08-19.4 291.08-17.1 282.88-17.6Q280.43-17.75 279.78-17.75L279.78-17.75 279.78-1Q280.68-1 282.93-1.3L282.93-1.3 291.78-2.45 291.78 0Z" opacity="1" transform="matrix(1,0,0,1,0,0)" fill="#cdedfe" class="undefined-tk-1"></path></svg></g></svg></g></svg></g></svg></g></svg></g></svg></g><defs></defs></svg><rect width="395.52" height="42.989533024883464" fill="none" stroke="none" visibility="hidden"></rect></g></svg></g></svg>